<?xml version="1.0" encoding="utf-8" standalone="no"?><!DOCTYPE svg PUBLIC "-//W3C//DTD SVG 1.1//EN" "http://www.w3.org/Graphics/SVG/1.1/DTD/svg11.dtd">
<svg preserveAspectRatio="xMinYMin meet" width="100%" height="100%" viewBox="0 0 700.000 525.000"  version="1.1" xmlns="http://www.w3.org/2000/svg" xmlns:xlink="http://www.w3.org/1999/xlink">
  <desc>Matlab Figure Converted by PLOT2SVG written by Juerg Schwizer</desc>
  <g id="topgroup">
  <g id ="ID000000">
  <clipPath id="ID000001">
    <rect x="105.000" y="68.250" width="560.000" height="367.500"/>
  </clipPath>
    <g>
<g id="ID000002" clip-path="url(#ID000001)" >
      <polyline fill="none" stroke="#000000" stroke-width="2.0pt" stroke-dasharray="none" points="180.600,269.494 181.533,269.497 182.467,269.500 183.400,269.503 184.333,269.505 185.267,269.507 186.200,269.508 187.133,269.510 188.067,269.511 189.000,269.513 189.933,269.515 190.867,269.517 191.800,269.519 192.733,269.522 193.667,269.525 194.600,269.528 195.533,269.532 196.467,269.537 197.400,269.543 198.333,269.549 199.267,269.556 200.200,269.564 201.133,269.573 202.067,269.584 203.000,269.595 203.933,269.608 204.867,269.623 205.800,269.638 206.733,269.656 207.667,269.675 208.600,269.695 209.533,269.718 210.467,269.743 211.400,269.771 212.333,269.804 213.267,269.841 214.200,269.884 215.133,269.935 216.067,269.993 217.000,270.060 217.933,270.137 218.867,270.225 219.800,270.325 220.733,270.440 221.667,270.575 222.600,270.733 223.533,270.917 224.467,271.130 225.400,271.377 226.333,271.659 227.267,271.982 228.200,272.349 229.133,272.762 230.067,273.227 231.000,273.750 231.933,274.335 232.867,274.987 233.800,275.712 234.733,276.514 235.667,277.398 236.600,278.370 237.533,279.435 238.467,280.597 239.400,281.857 240.333,283.216 241.267,284.676 242.200,286.235 243.133,287.896 244.067,289.658 245.000,291.523 245.933,293.491 246.867,295.562 247.800,297.737 248.733,300.011 249.667,302.379 250.600,304.833 251.533,307.369 252.467,309.978 253.400,312.656 254.333,315.395 255.267,318.190 256.200,321.035 257.133,323.922 258.067,326.851 259.000,329.823 259.933,332.841 260.867,335.906 261.800,339.021 262.733,342.186 263.667,345.405 264.600,348.678 265.533,352.009 266.467,355.398 267.400,358.846 268.333,362.348 269.267,365.900 270.200,369.499 271.133,373.141 272.067,376.820 273.000,380.534 273.933,384.279 274.867,388.050 275.800,391.843 276.733,395.647 277.667,399.436 278.600,403.182 279.533,406.857 280.467,410.432 281.400,413.880 282.333,417.172 283.267,420.282 284.200,423.180 285.133,425.838 286.067,428.231 287.000,430.334 287.933,432.127 288.867,433.586 289.800,434.692 290.733,435.420 291.667,435.750 292.600,435.659 293.533,435.126 294.467,434.129 295.400,432.649 296.333,430.689 297.267,428.258 298.200,425.366 299.133,422.023 300.067,418.239 301.000,414.023 301.933,409.385 302.867,404.335 303.800,398.883 304.733,393.038 305.667,386.822 306.600,380.258 307.533,373.371 308.467,366.187 309.400,358.730 310.333,351.025 311.267,343.098 312.200,334.972 313.133,326.673 314.067,318.227 315.000,309.656 315.933,300.986 316.867,292.239 317.800,283.441 318.733,274.614 319.667,265.783 320.600,256.971 321.533,248.203 322.467,239.502 323.400,230.893 324.333,222.395 325.267,214.022 326.200,205.790 327.133,197.712 328.067,189.802 329.000,182.074 329.933,174.544 330.867,167.224 331.800,160.130 332.733,153.274 333.667,146.669 334.600,140.319 335.533,134.226 336.467,128.394 337.400,122.827 338.333,117.526 339.267,112.496 340.200,107.740 341.133,103.260 342.067,99.060 343.000,95.142 343.933,91.505 344.867,88.144 345.800,85.058 346.733,82.243 347.667,79.697 348.600,77.417 349.533,75.399 350.467,73.642 351.400,72.141 352.333,70.895 353.267,69.896 354.200,69.139 355.133,68.617 356.067,68.323 357.000,68.250 357.933,68.392 358.867,68.742 359.800,69.294 360.733,70.041 361.667,70.975 362.600,72.090 363.533,73.376 364.467,74.825 365.400,76.429 366.333,78.178 367.267,80.065 368.200,82.081 369.133,84.217 370.067,86.464 371.000,88.815 371.933,91.260 372.867,93.793 373.800,96.407 374.733,99.093 375.667,101.846 376.600,104.656 377.533,107.518 378.467,110.423 379.400,113.364 380.333,116.335 381.267,119.328 382.200,122.340 383.133,125.365 384.067,128.401 385.000,131.442 385.933,134.484 386.867,137.523 387.800,140.555 388.733,143.576 389.667,146.581 390.600,149.566 391.533,152.531 392.467,155.472 393.400,158.388 394.333,161.279 395.267,164.141 396.200,166.973 397.133,169.774 398.067,172.542 399.000,175.276 399.933,177.973 400.867,180.633 401.800,183.256 402.733,185.842 403.667,188.390 404.600,190.901 405.533,193.374 406.467,195.809 407.400,198.205 408.333,200.563 409.267,202.882 410.200,205.163 411.133,207.405 412.067,209.609 413.000,211.776 413.933,213.906 414.867,215.998 415.800,218.055 416.733,220.075 417.667,222.059 418.600,224.007 419.533,225.921 420.467,227.800 421.400,229.645 422.333,231.457 423.267,233.235 424.200,234.981 425.133,236.694 426.067,238.376 427.000,240.027 427.933,241.647 428.867,243.237 429.800,244.797 430.733,246.328 431.667,247.830 432.600,249.304 433.533,250.751 434.467,252.170 435.400,253.563 436.333,254.930 437.267,256.271 438.200,257.587 439.133,258.878 440.067,260.145 441.000,261.388 441.933,262.606 442.867,263.801 443.800,264.973 444.733,266.121 445.667,267.247 446.600,268.350 447.533,269.431 448.467,270.491 449.400,271.528 450.333,272.545 451.267,273.541 452.200,274.517 453.133,275.472 454.067,276.408 455.000,277.325 455.933,278.223 456.867,279.102 457.800,279.964 458.733,280.807 459.667,281.632 460.600,282.440 461.533,283.231 462.467,284.005 463.400,284.762 464.333,285.503 465.267,286.227 466.200,286.936 467.133,287.628 468.067,288.306 469.000,288.967 469.933,289.614 470.867,290.245 471.800,290.862 472.733,291.464 473.667,292.051 474.600,292.624 475.533,293.182 476.467,293.727 477.400,294.257 478.333,294.774 479.267,295.278 480.200,295.768 481.133,296.246 482.067,296.711 483.000,297.163 483.933,297.603 484.867,298.032 485.800,298.448 486.733,298.853 487.667,299.246 488.600,299.629 489.533,300.000 490.467,300.360 491.400,300.709 492.333,301.047 493.267,301.375 494.200,301.693 495.133,302.000 496.067,302.297 497.000,302.585 497.933,302.863 498.867,303.131 499.800,303.390 500.733,303.641 501.667,303.882 502.600,304.115 503.533,304.339 504.467,304.555 505.400,304.763 506.333,304.963 507.267,305.155 508.200,305.339 509.133,305.516 510.067,305.686 511.000,305.848 511.933,306.003 512.867,306.152 513.800,306.293 514.733,306.428 515.667,306.556 516.600,306.677 517.533,306.792 518.467,306.901 519.400,307.002 520.333,307.098 521.267,307.187 522.200,307.270 523.133,307.347 524.067,307.417 525.000,307.482 525.933,307.540 526.867,307.593 527.800,307.641 528.733,307.683 529.667,307.720 530.600,307.753 531.533,307.780 532.467,307.803 533.400,307.821 534.333,307.834 535.267,307.843 536.200,307.848 537.133,307.849 538.067,307.845 539.000,307.837 539.933,307.825 540.867,307.808 541.800,307.788 542.733,307.764 543.667,307.736 544.600,307.703 545.533,307.668 546.467,307.628 547.400,307.584 548.333,307.537 549.267,307.487 550.200,307.433 551.133,307.375 552.067,307.314 553.000,307.250 553.933,307.182 554.867,307.111 555.800,307.037 556.733,306.961 557.667,306.881 558.600,306.798 559.533,306.713 560.467,306.625 561.400,306.535 562.333,306.442 563.267,306.347 564.200,306.249 565.133,306.148 566.067,306.046 567.000,305.941 567.933,305.833 568.867,305.723 569.800,305.611 570.733,305.497 571.667,305.380 572.600,305.261 573.533,305.140 574.467,305.017 575.400,304.892 576.333,304.765 577.267,304.636 578.200,304.505 579.133,304.372 580.067,304.237 581.000,304.101 581.933,303.963 582.867,303.824 583.800,303.683 584.733,303.540 585.667,303.396 586.600,303.251 587.533,303.104 588.467,302.956 "/>
<g>
</g>
</g>
<g id="ID000003" >
</g>
    </g>
  </g>
  </g>
</svg>
